<svg width="24" height="24" viewBox="0 0 24 24" fill="none" xmlns="http://www.w3.org/2000/svg">
<path d="M22.0476 12.0232H4.25135L8.4978 7.66742C8.86982 7.28608 8.86982 6.66746 8.4978 6.28618C8.12578 5.90461 7.52266 5.90461 7.15119 6.28618L1.27901 12.3093C0.906996 12.6906 0.906996 13.3093 1.27901 13.6905L7.15119 19.7139C7.33715 19.9047 7.58085 20 7.8245 20C8.06814 20 8.31185 19.9047 8.4978 19.7139C8.86982 19.3325 8.86982 18.7139 8.4978 18.3327L4.25135 13.9767H22.0476C22.5735 13.9767 23 13.5393 23 12.9999C23 12.4605 22.5736 12.0232 22.0476 12.0232Z" fill="black"/>
</svg>
