<svg width="24" height="24" viewBox="0 0 24 24" fill="none" xmlns="http://www.w3.org/2000/svg">
<path d="M15.7813 11.3616C14.6027 10.4286 13.1295 10.8705 12.3438 11.6071L11.9509 12L11.6071 11.6071C10.8705 10.8705 9.34822 10.4286 8.16964 11.3616C6.99107 12.3438 6.94196 14.0134 7.97321 15.0446L11.558 18.5312C11.8036 18.7768 12.1473 18.7768 12.3929 18.5312L15.9777 15.0446C17.0089 14.0134 16.9107 12.3438 15.7813 11.3616ZM22.9509 8.07143C22.9509 7.58036 22.8527 7.04018 22.6071 6.59821L20.2009 2.08036C19.9554 1.44196 19.3661 1 18.6786 1H5.27232C4.58482 1 3.99554 1.44196 3.75 2.08036L1.34375 6.59821C1.09821 7.08929 1 7.58036 1 8.12054C1 11.067 1 21.4286 1 21.4286C1 22.3125 1.6875 23 2.57143 23H21.4286C22.2634 23 23 22.3125 23 21.4286C23 21.4286 22.9509 11.067 22.9509 8.07143ZM13.1786 3.35714H18.1875L19.9062 6.5H13.1786V3.35714ZM5.76339 3.35714H10.8214V6.5H4.09375L5.76339 3.35714ZM3.35714 20.6429C3.35714 18.875 3.35714 12.6384 3.35714 8.85714H20.5938C20.5938 12.6384 20.6429 18.875 20.6429 20.6429H3.35714Z" fill="black"/>
</svg>
