<svg width="24" height="24" viewBox="0 0 24 24" fill="none" xmlns="http://www.w3.org/2000/svg">
<path d="M8.65918 13.375C8.91699 13.375 9.1748 13.1602 9.1748 12.8594V11.1406C9.1748 10.8828 8.91699 10.625 8.65918 10.625H6.94043C6.63965 10.625 6.4248 10.8828 6.4248 11.1406V12.8594C6.4248 13.1602 6.63965 13.375 6.94043 13.375H8.65918ZM13.2998 12.8594V11.1406C13.2998 10.8828 13.042 10.625 12.7842 10.625H11.0654C10.7646 10.625 10.5498 10.8828 10.5498 11.1406V12.8594C10.5498 13.1602 10.7646 13.375 11.0654 13.375H12.7842C13.042 13.375 13.2998 13.1602 13.2998 12.8594ZM17.4248 12.8594V11.1406C17.4248 10.8828 17.167 10.625 16.9092 10.625H15.1904C14.8896 10.625 14.6748 10.8828 14.6748 11.1406V12.8594C14.6748 13.1602 14.8896 13.375 15.1904 13.375H16.9092C17.167 13.375 17.4248 13.1602 17.4248 12.8594ZM13.2998 16.9844V15.2656C13.2998 15.0078 13.042 14.75 12.7842 14.75H11.0654C10.7646 14.75 10.5498 15.0078 10.5498 15.2656V16.9844C10.5498 17.2852 10.7646 17.5 11.0654 17.5H12.7842C13.042 17.5 13.2998 17.2852 13.2998 16.9844ZM9.1748 16.9844V15.2656C9.1748 15.0078 8.91699 14.75 8.65918 14.75H6.94043C6.63965 14.75 6.4248 15.0078 6.4248 15.2656V16.9844C6.4248 17.2852 6.63965 17.5 6.94043 17.5H8.65918C8.91699 17.5 9.1748 17.2852 9.1748 16.9844ZM17.4248 16.9844V15.2656C17.4248 15.0078 17.167 14.75 16.9092 14.75H15.1904C14.8896 14.75 14.6748 15.0078 14.6748 15.2656V16.9844C14.6748 17.2852 14.8896 17.5 15.1904 17.5H16.9092C17.167 17.5 17.4248 17.2852 17.4248 16.9844ZM21.5498 5.8125C21.5498 4.69531 20.6045 3.75 19.4873 3.75H17.4248V1.51562C17.4248 1.25781 17.167 1 16.9092 1H15.1904C14.8896 1 14.6748 1.25781 14.6748 1.51562V3.75H9.1748V1.51562C9.1748 1.25781 8.91699 1 8.65918 1H6.94043C6.63965 1 6.4248 1.25781 6.4248 1.51562V3.75H4.3623C3.20215 3.75 2.2998 4.69531 2.2998 5.8125V20.9375C2.2998 22.0977 3.20215 23 4.3623 23H19.4873C20.6045 23 21.5498 22.0977 21.5498 20.9375V5.8125ZM19.4873 20.6797C19.4873 20.8516 19.3584 20.9375 19.2295 20.9375H4.62012C4.44824 20.9375 4.3623 20.8516 4.3623 20.6797V7.875H19.4873V20.6797Z" fill="#2E313C"/>
</svg>
