<svg width="24" height="24" viewBox="0 0 24 24" fill="none" xmlns="http://www.w3.org/2000/svg">
<path d="M21.1285 3.5H2.83333C1.80208 3.5 1 4.33482 1 5.32143V18.6786C1 19.7031 1.80208 20.5 2.83333 20.5H21.1285C22.1597 20.5 23 19.7031 23 18.6786V5.32143C23 4.33482 22.1597 3.5 21.1285 3.5ZM3.0625 5.32143H20.8993C21.0521 5.32143 21.1285 5.43527 21.1285 5.54911V7.14286H2.83333V5.54911C2.83333 5.43527 2.90972 5.32143 3.0625 5.32143ZM20.8993 18.6786H3.0625C2.90972 18.6786 2.83333 18.6027 2.83333 18.4509V12H21.1285V18.4509C21.1285 18.6027 21.0521 18.6786 20.8993 18.6786ZM8.33333 14.8839C8.33333 14.6562 8.10417 14.4286 7.875 14.4286H5.125C4.85764 14.4286 4.66667 14.6562 4.66667 14.8839V16.4018C4.66667 16.6674 4.85764 16.8571 5.125 16.8571H7.875C8.10417 16.8571 8.33333 16.6674 8.33333 16.4018V14.8839ZM15.6667 14.8839C15.6667 14.6562 15.4375 14.4286 15.2083 14.4286H10.0139C9.74653 14.4286 9.55556 14.6562 9.55556 14.8839V16.4018C9.55556 16.6674 9.74653 16.8571 10.0139 16.8571H15.2083C15.4375 16.8571 15.6667 16.6674 15.6667 16.4018V14.8839Z" fill="#2E313C"/>
</svg>
