<svg width="24" height="24" viewBox="0 0 24 24" fill="none" xmlns="http://www.w3.org/2000/svg">
<path d="M12.3438 1.09375C6.26714 1.09375 1.34375 6.01714 1.34375 12.0938C1.34375 18.1704 6.26714 23.0938 12.3438 23.0938C18.4204 23.0938 23.3438 18.1704 23.3438 12.0938C23.3438 6.01714 18.4204 1.09375 12.3438 1.09375ZM12.3438 20.9647C7.42036 20.9647 3.47278 17.0171 3.47278 12.0938C3.47278 7.21472 7.42036 3.22278 12.3438 3.22278C17.2228 3.22278 21.2147 7.21472 21.2147 12.0938C21.2147 17.0171 17.2228 20.9647 12.3438 20.9647ZM15.0494 16.3518C15.3155 16.5292 15.626 16.4849 15.8034 16.2188L16.6462 15.1099C16.8236 14.8438 16.7792 14.5333 16.5131 14.3558L13.5857 12.1825V5.88407C13.5857 5.61794 13.3196 5.35181 13.0534 5.35181H11.6341C11.3236 5.35181 11.1018 5.61794 11.1018 5.88407V13.2026C11.1018 13.3357 11.1462 13.5131 11.2792 13.6018L15.0494 16.3518Z" fill="black"/>
</svg>
