<svg width="24" height="24" viewBox="0 0 24 24" fill="none" xmlns="http://www.w3.org/2000/svg">
<path d="M12 1C5.92339 1 1 5.92339 1 12C1 18.0766 5.92339 23 12 23C18.0766 23 23 18.0766 23 12C23 5.92339 18.0766 1 12 1ZM12 20.871C7.07661 20.871 3.12903 16.9234 3.12903 12C3.12903 7.12097 7.07661 3.12903 12 3.12903C16.879 3.12903 20.871 7.12097 20.871 12C20.871 16.9234 16.879 20.871 12 20.871ZM16.4798 9.25C16.7016 9.07258 16.7016 8.71774 16.4798 8.49597L15.504 7.52016C15.2823 7.29839 14.9274 7.29839 14.75 7.52016L12 10.2702L9.20564 7.52016C9.02823 7.29839 8.67339 7.29839 8.45161 7.52016L7.47581 8.49597C7.25403 8.71774 7.25403 9.07258 7.47581 9.25L10.2258 12L7.47581 14.7944C7.25403 14.9718 7.25403 15.3266 7.47581 15.5484L8.45161 16.5242C8.67339 16.746 9.02823 16.746 9.20564 16.5242L12 13.7742L14.75 16.5242C14.9274 16.746 15.2823 16.746 15.504 16.5242L16.4798 15.5484C16.7016 15.3266 16.7016 14.9718 16.4798 14.7944L13.7298 12L16.4798 9.25Z" fill="white"/>
</svg>
