<svg width="24" height="24" viewBox="0 0 24 24" fill="none" xmlns="http://www.w3.org/2000/svg">
<path d="M20.9805 3.58594L18.7891 1.39453C18.4453 1.05078 17.8008 0.75 17.3281 0.75H9.9375C8.77734 0.75 7.875 1.69531 7.875 2.8125V4.875H4.4375C3.27734 4.875 2.375 5.82031 2.375 6.9375V20.6875C2.375 21.8477 3.27734 22.75 4.4375 22.75H14.0625C15.1797 22.75 16.125 21.8477 16.125 20.6875V18.625H19.5625C20.6797 18.625 21.625 17.7227 21.625 16.5625V5.04688C21.625 4.57422 21.3242 3.92969 20.9805 3.58594ZM13.8047 20.6875H4.69531C4.52344 20.6875 4.4375 20.6016 4.4375 20.4297V7.19531C4.4375 7.06641 4.52344 6.9375 4.69531 6.9375H7.875V16.5625C7.875 17.7227 8.77734 18.625 9.9375 18.625H14.0625V20.4297C14.0625 20.6016 13.9336 20.6875 13.8047 20.6875ZM19.3047 16.5625H10.1953C10.0234 16.5625 9.9375 16.4766 9.9375 16.3047V3.07031C9.9375 2.94141 10.0234 2.8125 10.1953 2.8125H14.75V6.59375C14.75 7.19531 15.1797 7.625 15.7812 7.625H19.5625V16.3047C19.5625 16.4766 19.4336 16.5625 19.3047 16.5625ZM19.5625 5.5625H16.8125V2.8125H17.1992C17.2852 2.8125 17.3281 2.85547 17.3711 2.89844L19.4766 5.00391C19.5195 5.04688 19.5625 5.08984 19.5625 5.17578V5.5625Z" fill="#2E313C"/>
</svg>
