<svg width="24" height="24" viewBox="0 0 24 24" fill="none" xmlns="http://www.w3.org/2000/svg">
<path d="M13.8906 18.625H14.9219C15.1797 18.625 15.4375 18.4102 15.4375 18.1094V8.82812C15.4375 8.57031 15.1797 8.3125 14.9219 8.3125H13.8906C13.5898 8.3125 13.375 8.57031 13.375 8.82812V18.1094C13.375 18.4102 13.5898 18.625 13.8906 18.625ZM20.9375 4.1875H17.3711L15.9102 1.78125C15.5664 1.22266 14.793 0.75 14.1484 0.75H9.80859C9.16406 0.75 8.39062 1.22266 8.04688 1.78125L6.58594 4.1875H3.0625C2.67578 4.1875 2.375 4.53125 2.375 4.875V5.5625C2.375 5.94922 2.67578 6.25 3.0625 6.25H3.75V20.6875C3.75 21.8477 4.65234 22.75 5.8125 22.75H18.1875C19.3047 22.75 20.25 21.8477 20.25 20.6875V6.25H20.9375C21.2812 6.25 21.625 5.94922 21.625 5.5625V4.875C21.625 4.53125 21.2812 4.1875 20.9375 4.1875ZM9.72266 2.94141C9.76562 2.89844 9.89453 2.8125 9.9375 2.8125H14.0195C14.0625 2.8125 14.1914 2.89844 14.2344 2.94141L14.9648 4.1875H8.99219L9.72266 2.94141ZM18.1875 20.6875H5.8125V6.25H18.1875V20.6875ZM9.07812 18.625H10.1094C10.3672 18.625 10.625 18.4102 10.625 18.1094V8.82812C10.625 8.57031 10.3672 8.3125 10.1094 8.3125H9.07812C8.77734 8.3125 8.5625 8.57031 8.5625 8.82812V18.1094C8.5625 18.4102 8.77734 18.625 9.07812 18.625Z" fill="black"/>
</svg>
