<svg width="24" height="24" viewBox="0 0 24 24" fill="none" xmlns="http://www.w3.org/2000/svg">
<path d="M22.45 15.65H21.9V11.6625C21.9 11.0094 21.625 10.3906 21.1438 9.90938L18.2906 7.05625C17.8094 6.575 17.1906 6.3 16.5375 6.3H15.3V4.925C15.3 3.89375 14.4062 3 13.375 3H2.925C1.85938 3 1 3.89375 1 4.925V15.375C1 16.4406 1.85938 17.3 2.925 17.3H3.2C3.2 19.1219 4.67813 20.6 6.5 20.6C8.32188 20.6 9.8 19.1219 9.8 17.3H14.2C14.2 19.1219 15.6781 20.6 17.5 20.6C19.3219 20.6 20.8 19.1219 20.8 17.3H22.45C22.725 17.3 23 17.0594 23 16.75V16.2C23 15.925 22.725 15.65 22.45 15.65ZM6.5 18.95C5.57188 18.95 4.85 18.2281 4.85 17.3C4.85 16.4062 5.57188 15.65 6.5 15.65C7.39375 15.65 8.15 16.4062 8.15 17.3C8.15 18.2281 7.39375 18.95 6.5 18.95ZM13.65 15.65H9.31875C8.76875 14.6875 7.70312 14 6.5 14C5.2625 14 4.19688 14.6875 3.64688 15.65H2.925C2.75313 15.65 2.65 15.5469 2.65 15.375V4.925C2.65 4.7875 2.75313 4.65 2.925 4.65H13.375C13.5125 4.65 13.65 4.7875 13.65 4.925V15.65ZM15.3 7.95H16.5375C16.7438 7.95 16.95 8.05312 17.1219 8.19063L19.6313 10.7H15.3V7.95ZM17.5 18.95C16.5719 18.95 15.85 18.2281 15.85 17.3C15.85 16.4062 16.5719 15.65 17.5 15.65C18.3938 15.65 19.15 16.4062 19.15 17.3C19.15 18.2281 18.3938 18.95 17.5 18.95ZM20.25 15.5125C19.6313 14.6188 18.6344 14 17.5 14C16.6406 14 15.8844 14.3438 15.3 14.8594V12.35H20.25V15.5125Z" fill="#1F2128"/>
</svg>
