<svg width="18" height="18" viewBox="0 0 18 18" fill="none" xmlns="http://www.w3.org/2000/svg">
<path d="M8.53516 12.168C8.64453 12.332 8.80859 12.3867 9 12.3867C9.16406 12.3867 9.32812 12.332 9.46484 12.168L14.7695 6.86328C14.8789 6.75391 14.9609 6.58984 14.9609 6.39844C14.9609 6.23438 14.8789 6.07031 14.7695 5.93359L14.168 5.33203C14.0312 5.22266 13.8672 5.14062 13.7031 5.14062C13.5117 5.14062 13.3477 5.19531 13.2383 5.30469L9 9.54297L4.76172 5.30469C4.625 5.19531 4.46094 5.14062 4.29688 5.14062C4.10547 5.14062 3.94141 5.22266 3.83203 5.33203L3.23047 5.93359C3.09375 6.07031 3.03906 6.23438 3.03906 6.39844C3.03906 6.58984 3.09375 6.75391 3.23047 6.86328L8.53516 12.168Z" fill="black"/>
</svg>
