<svg width="18" height="18" viewBox="0 0 18 18" fill="none" xmlns="http://www.w3.org/2000/svg">
<path d="M12.418 9.21484C12.5547 9.10547 12.6367 8.94141 12.6367 8.75C12.6367 8.58594 12.5547 8.42188 12.418 8.28516L7.11328 2.98047C6.97656 2.87109 6.8125 2.78906 6.64844 2.78906C6.45703 2.78906 6.29297 2.87109 6.18359 2.98047L5.58203 3.58203C5.44531 3.71875 5.36328 3.88281 5.36328 4.04688C5.36328 4.23828 5.41797 4.40234 5.55469 4.51172L9.79297 8.75L5.55469 12.9883C5.41797 13.125 5.36328 13.2891 5.36328 13.4531C5.36328 13.6445 5.44531 13.8086 5.58203 13.918L6.18359 14.5195C6.29297 14.6562 6.45703 14.7109 6.64844 14.7109C6.8125 14.7109 6.97656 14.6562 7.11328 14.5195L12.418 9.21484Z" fill="black"/>
</svg>
