<svg width="18" height="18" viewBox="0 0 18 18" fill="none" xmlns="http://www.w3.org/2000/svg">
<path d="M9.46484 5.33203C9.32812 5.19531 9.16406 5.11328 9 5.11328C8.80859 5.11328 8.64453 5.19531 8.53516 5.33203L3.23047 10.6367C3.09375 10.7734 3.03906 10.9375 3.03906 11.1016C3.03906 11.293 3.09375 11.457 3.23047 11.5664L3.83203 12.168C3.94141 12.3047 4.10547 12.3867 4.29688 12.3867C4.46094 12.3867 4.625 12.332 4.76172 12.1953L9 7.95703L13.2383 12.1953C13.3477 12.332 13.5117 12.3867 13.7031 12.3867C13.8672 12.3867 14.0312 12.3047 14.168 12.168L14.7695 11.5664C14.8789 11.457 14.9609 11.293 14.9609 11.1016C14.9609 10.9375 14.8789 10.7734 14.7695 10.6367L9.46484 5.33203Z" fill="black"/>
</svg>
