<svg width="24" height="24" viewBox="0 0 24 24" fill="none" xmlns="http://www.w3.org/2000/svg">
<path d="M22.3125 3.84375H13.375V2.8125C13.375 2.46875 13.0312 2.125 12.6875 2.125H11.3125C10.9258 2.125 10.625 2.46875 10.625 2.8125V3.84375H1.6875C1.30078 3.84375 1 4.1875 1 4.53125V5.21875C1 5.60547 1.30078 5.90625 1.6875 5.90625H10.625V6.9375C10.625 7.32422 10.9258 7.625 11.3125 7.625H12.6875C13.0312 7.625 13.375 7.32422 13.375 6.9375V5.90625H22.3125C22.6562 5.90625 23 5.60547 23 5.21875V4.53125C23 4.1875 22.6562 3.84375 22.3125 3.84375ZM22.3125 17.5938H7.875V16.5625C7.875 16.2188 7.53125 15.875 7.1875 15.875H5.8125C5.42578 15.875 5.125 16.2188 5.125 16.5625V17.5938H1.6875C1.30078 17.5938 1 17.9375 1 18.2812V18.9688C1 19.3555 1.30078 19.6562 1.6875 19.6562H5.125V20.6875C5.125 21.0742 5.42578 21.375 5.8125 21.375H7.1875C7.53125 21.375 7.875 21.0742 7.875 20.6875V19.6562H22.3125C22.6562 19.6562 23 19.3555 23 18.9688V18.2812C23 17.9375 22.6562 17.5938 22.3125 17.5938ZM22.3125 10.7188H18.875V9.6875C18.875 9.34375 18.5312 9 18.1875 9H16.8125C16.4258 9 16.125 9.34375 16.125 9.6875V10.7188H1.6875C1.30078 10.7188 1 11.0625 1 11.4062V12.0938C1 12.4805 1.30078 12.7812 1.6875 12.7812H16.125V13.8125C16.125 14.1992 16.4258 14.5 16.8125 14.5H18.1875C18.5312 14.5 18.875 14.1992 18.875 13.8125V12.7812H22.3125C22.6562 12.7812 23 12.4805 23 12.0938V11.4062C23 11.0625 22.6562 10.7188 22.3125 10.7188Z" fill="black"/>
</svg>
