<svg width="24" height="24" viewBox="0 0 24 24" fill="none" xmlns="http://www.w3.org/2000/svg">
<path d="M20.9375 7.5H19.7773C20.0781 6.98438 20.25 6.42578 20.25 5.78125C20.25 3.71875 18.5312 2 16.4688 2C14.6641 2 13.5039 2.94531 12.043 4.96484C10.5391 2.94531 9.37891 2 7.61719 2C5.51172 2 3.83594 3.71875 3.83594 5.78125C3.83594 6.42578 3.96484 6.98438 4.26562 7.5H3.0625C1.90234 7.5 1 8.44531 1 9.5625V15.0625C1 15.4492 1.30078 15.75 1.6875 15.75H2.375V20.3906C2.375 21.6367 3.36328 22.625 4.60938 22.625H19.3477C20.5938 22.625 21.625 21.6367 21.625 20.3906V15.75H22.3125C22.6562 15.75 23 15.4492 23 15.0625V9.5625C23 8.44531 22.0547 7.5 20.9375 7.5ZM10.9688 20.5625H4.60938C4.52344 20.5625 4.4375 20.4766 4.4375 20.3906V15.75H9.25V13.6875H3.0625V9.5625H10.9688V20.5625ZM7.57422 7.5C6.62891 7.5 5.85547 6.76953 5.85547 5.78125C5.85547 4.83594 6.62891 4.0625 7.57422 4.0625C8.51953 4.0625 9.20703 4.40625 11.2266 7.37109L11.3125 7.5H7.57422ZM12.8164 7.37109C14.8359 4.40625 15.5234 4.0625 16.4688 4.0625C17.4141 4.0625 18.1875 4.83594 18.1875 5.78125C18.1875 6.76953 17.4141 7.5 16.4688 7.5H12.7305L12.8164 7.37109ZM20.9375 13.6875H14.75V15.75H19.5625V20.3906C19.5625 20.4766 19.4766 20.5625 19.3477 20.5625H13.0312V9.5625H20.9375V13.6875Z" fill="black"/>
</svg>
