<svg width="32" height="32" viewBox="0 0 32 32" fill="none" xmlns="http://www.w3.org/2000/svg">
<path d="M13.9904 18.4858C13.8931 18.4212 13.7934 18.3511 13.6889 18.2804C13.385 18.1873 13.0623 18.139 12.7318 18.1348H12.692C11.173 18.1348 9.84131 19.0538 9.84131 20.1027C9.84131 21.2446 10.9827 22.137 12.4388 22.137C14.3596 22.137 15.3329 21.4736 15.3329 20.1685C15.3329 20.0453 15.3184 19.9172 15.2876 19.7885C15.1577 19.2822 14.6931 18.9662 13.9904 18.4858Z" fill="#2E313C"/>
<path d="M12.9143 14.505H12.9155C13.2786 14.505 13.5849 14.3618 13.8224 14.09C14.1946 13.6658 14.3595 12.9698 14.2616 12.2308C14.0894 10.91 13.1451 9.81037 12.1596 9.78197L12.1203 9.78076C11.7717 9.78076 11.4605 9.92456 11.2243 10.1952C10.8575 10.614 10.7023 11.2774 10.7983 12.0151C10.9711 13.3347 11.9354 14.4748 12.9004 14.505H12.9143Z" fill="#2E313C"/>
<path d="M16 1C7.72903 1 1 7.72903 1 16C1 24.2704 7.72903 31 16 31C24.2704 31 31 24.2704 31 16C31 7.72903 24.2716 1 16 1ZM14.2708 23.3042C13.704 23.468 13.0908 23.5508 12.4473 23.5508C11.7307 23.5508 11.0419 23.4686 10.3996 23.306C9.15677 22.9925 8.23838 22.3979 7.80939 21.6318C7.62451 21.3007 7.53085 20.9478 7.53085 20.5823C7.53085 20.2059 7.62088 19.824 7.79852 19.4458C8.47946 17.9945 10.2746 17.0181 12.263 17.0181H12.3198C12.1585 16.7335 12.0805 16.4387 12.0805 16.1287C12.0805 15.9746 12.1011 15.8175 12.1421 15.6574C10.0564 15.6103 8.49577 14.0829 8.49577 12.069C8.49577 10.6473 9.63228 9.2619 11.2576 8.70241C11.744 8.53444 12.24 8.44864 12.7276 8.44864H17.1879C17.3395 8.44864 17.4743 8.54713 17.5214 8.69153C17.5685 8.83533 17.5166 8.99364 17.3939 9.08245L16.3964 9.80448C16.3365 9.84677 16.2646 9.86973 16.1903 9.86973H15.8332C16.2942 10.4226 16.5643 11.2111 16.5643 12.0962C16.5643 13.0732 16.0701 13.9971 15.1704 14.701C14.4756 15.2423 14.4484 15.3916 14.4484 15.7003C14.4569 15.8701 14.9408 16.4242 15.4749 16.8018C16.719 17.6815 17.1818 18.5449 17.1818 19.9853C17.1812 21.4904 16.0387 22.7907 14.2708 23.3042ZM24.3435 15.6538C24.3435 15.8471 24.1858 16.0042 23.993 16.0042H21.4584V18.5401C21.4584 18.7334 21.3007 18.8905 21.1092 18.8905H20.3871C20.1926 18.8905 20.0355 18.7334 20.0355 18.5401V16.0042H17.5027C17.3093 16.0042 17.1522 15.8483 17.1522 15.6538V14.933C17.1522 14.7396 17.3093 14.5813 17.5027 14.5813H20.0355V12.0479C20.0355 11.8539 20.1926 11.6975 20.3871 11.6975H21.1092C21.3007 11.6975 21.4584 11.8539 21.4584 12.0479V14.5813H23.9924C24.1852 14.5813 24.3429 14.7384 24.3429 14.9318V15.6538H24.3435Z" fill="#2E313C"/>
</svg>
