<svg width="24" height="24" viewBox="0 0 24 24" fill="none" xmlns="http://www.w3.org/2000/svg">
<path d="M20.7006 3.88377C18.2078 1.80878 14.3827 2.10521 12.0188 4.51897C9.61199 2.10521 5.78684 1.80878 3.29405 3.88377C0.0706064 6.55161 0.543377 10.9133 2.86425 13.2424L10.3856 20.8225C10.8154 21.2459 11.3741 21.5 12.0188 21.5C12.6205 21.5 13.1793 21.2459 13.609 20.8225L21.1734 13.2424C23.4513 10.9133 23.9241 6.55161 20.7006 3.88377ZM19.6691 11.8026L12.1478 19.3827C12.0618 19.4674 11.9758 19.4674 11.8469 19.3827L4.32555 11.8026C2.73532 10.2358 2.43446 7.27151 4.6264 5.4506C6.30259 4.05316 8.88134 4.26489 10.5145 5.87407L12.0188 7.39855L13.5231 5.87407C15.1133 4.26489 17.6921 4.05316 19.3683 5.40825C21.5602 7.27151 21.2593 10.2358 19.6691 11.8026Z" fill="black"/>
</svg>
