<svg width="24" height="24" viewBox="0 0 24 24" fill="none" xmlns="http://www.w3.org/2000/svg">
<path d="M12 1C5.92339 1 1 5.96774 1 12C1 18.0766 5.92339 23 12 23C18.0323 23 23 18.0766 23 12C23 5.96774 18.0323 1 12 1ZM12 20.871C7.07661 20.871 3.12903 16.9234 3.12903 12C3.12903 7.12097 7.07661 3.12903 12 3.12903C16.879 3.12903 20.871 7.12097 20.871 12C20.871 16.9234 16.879 20.871 12 20.871ZM16.746 9.56048C16.746 7.34274 14.3952 5.6129 12.2218 5.6129C10.1371 5.6129 8.80645 6.5 7.78629 8.05242C7.60887 8.27419 7.65323 8.58468 7.875 8.7621L9.11693 9.69355C9.33871 9.87097 9.69355 9.82661 9.87097 9.60484C10.5363 8.7621 11.0242 8.27419 12.0444 8.27419C12.8427 8.27419 13.8185 8.7621 13.8185 9.56048C13.8185 10.1371 13.3306 10.4032 12.5323 10.8468C11.6452 11.379 10.4476 12 10.4476 13.5968V13.9516C10.4476 14.2621 10.6694 14.4839 10.9798 14.4839H12.9758C13.2863 14.4839 13.5081 14.2621 13.5081 13.9516V13.6855C13.5081 12.5766 16.746 12.5323 16.746 9.56048ZM13.8629 16.9677C13.8629 15.9476 13.0202 15.1048 12 15.1048C10.9355 15.1048 10.1371 15.9476 10.1371 16.9677C10.1371 18.0323 10.9355 18.8306 12 18.8306C13.0202 18.8306 13.8629 18.0323 13.8629 16.9677Z" fill="black"/>
</svg>
