<svg width="32" height="32" viewBox="0 0 32 32" fill="none" xmlns="http://www.w3.org/2000/svg">
<path d="M15.9993 19.0029C17.6542 19.0029 19.0034 17.6561 19.0034 16C19.0034 15.3462 18.7895 14.7426 18.4354 14.2496C17.8898 13.4931 17.0028 12.9971 16.0011 12.9971C14.9987 12.9971 14.1123 13.4925 13.5655 14.249C13.2102 14.742 12.9982 15.3456 12.9976 15.9994C12.9957 17.6555 14.3437 19.0029 15.9993 19.0029Z" fill="#2E313C"/>
<path d="M22.5569 12.3263V9.80918V9.43457L22.1805 9.43578L19.6646 9.44363L19.6742 12.336L22.5569 12.3263Z" fill="#2E313C"/>
<path d="M16 1C7.72903 1 1 7.72903 1 16C1 24.2704 7.72903 31 16 31C24.2704 31 31 24.2704 31 16C31 7.72903 24.2716 1 16 1ZM24.5308 14.2496V21.2342C24.5308 23.0535 23.0517 24.532 21.2336 24.532H10.7664C8.94772 24.532 7.46923 23.0535 7.46923 21.2342V14.2496V10.767C7.46923 8.94832 8.94772 7.46983 10.7664 7.46983H21.233C23.0517 7.46983 24.5308 8.94832 24.5308 10.767V14.2496Z" fill="#2E313C"/>
<path d="M20.6663 15.9999C20.6663 18.572 18.5734 20.6662 16.0001 20.6662C13.4268 20.6662 11.3344 18.572 11.3344 15.9999C11.3344 15.3812 11.4577 14.7897 11.6776 14.2495H9.13086V21.2341C9.13086 22.1368 9.86376 22.8679 10.7658 22.8679H21.2325C22.1334 22.8679 22.8675 22.1368 22.8675 21.2341V14.2495H20.3195C20.5413 14.7897 20.6663 15.3812 20.6663 15.9999Z" fill="#2E313C"/>
</svg>
