<svg width="24" height="24" viewBox="0 0 24 24" fill="none" xmlns="http://www.w3.org/2000/svg">
<path d="M12 1C7.26302 1 3.5 4.73463 3.5 9.24195C3.5 12.3327 4.51823 13.2771 10.1849 22.0341C11.026 23.322 12.9297 23.322 13.7708 22.0341C19.4375 13.2771 20.5 12.3327 20.5 9.24195C20.5 4.69171 16.6484 1 12 1ZM12 20.918C6.33333 12.161 5.625 11.6029 5.625 9.24195C5.625 5.85073 8.45833 3.06049 12 3.06049C15.4974 3.06049 18.375 5.85073 18.375 9.24195C18.375 11.6029 17.6667 12.0751 12 20.918ZM8.45833 9.24195C8.45833 11.1737 10.0078 12.6761 12 12.6761C13.9479 12.6761 15.5417 11.1737 15.5417 9.24195C15.5417 7.35317 13.9479 5.80781 12 5.80781C10.0078 5.80781 8.45833 7.35317 8.45833 9.24195Z" fill="black"/>
</svg>
