<svg width="42" height="42" viewBox="0 0 42 42" fill="none" xmlns="http://www.w3.org/2000/svg">
<g clip-path="url(#clip0_14485_864)">
<path d="M21 42C32.598 42 42 32.598 42 21C42 9.40202 32.598 0 21 0C9.40202 0 0 9.40202 0 21C0 32.598 9.40202 42 21 42Z" fill="#3C80AD"/>
<path d="M14.1345 10.8076C8.8354 10.8411 4.54492 15.1617 4.54492 20.4797C4.54492 25.8187 8.86855 30.1512 14.1965 30.1512C16.6957 30.1512 18.9751 29.1965 20.69 27.6312L20.6897 27.6308H20.691C21.0428 27.3102 21.3704 26.9633 21.6712 26.595H19.6943C19.43 26.2757 19.19 25.942 18.9745 25.5982H22.3842C22.5925 25.2659 22.7795 24.9208 22.947 24.5633H18.4122C18.2574 24.231 18.123 23.8924 18.0086 23.5473H23.3505C23.6732 22.583 23.8472 21.5511 23.8472 20.4797C23.8472 19.7681 23.77 19.0757 23.6251 18.4079H17.7251C17.7987 18.0641 17.8906 17.7248 18 17.3923H23.3446C23.2252 17.0374 23.0863 16.6923 22.9284 16.3567H18.4115C18.5743 16.0075 18.759 15.669 18.965 15.3406H22.3727C22.1456 14.9782 21.8949 14.632 21.624 14.3058H19.724C20.0181 13.9585 20.341 13.632 20.6915 13.3293C18.9772 11.7632 16.6976 10.8079 14.197 10.8079C14.1753 10.8076 14.1547 10.8076 14.1345 10.8076Z" fill="#931B1D"/>
<path d="M36.7933 20.4828C36.7943 25.8237 32.4758 30.1546 27.1441 30.1562C21.8147 30.1579 17.4928 25.8286 17.4912 20.4867V20.4828C17.4895 15.1402 21.8095 10.8089 27.1398 10.8076C32.4698 10.8057 36.7921 15.1352 36.7934 20.4774C36.7933 20.4774 36.7933 20.4798 36.7933 20.4828Z" fill="#F16622"/>
<path d="M36.7933 20.5896C36.7943 25.9308 32.4758 30.2624 27.1441 30.2634C21.8147 30.2653 17.4928 25.9355 17.4912 20.5945V20.5896C17.4895 15.248 21.8095 10.9164 27.1398 10.915C32.4698 10.9131 36.7921 15.2427 36.7934 20.5845C36.7933 20.5846 36.7933 20.5876 36.7933 20.5896Z" fill="#F7981D"/>
<path d="M14.1345 10.9171C8.8354 10.9512 4.54492 15.2708 4.54492 20.5892C4.54492 25.9285 8.86855 30.2613 14.1965 30.2613C16.6957 30.2613 18.9751 29.306 20.69 27.7409L20.6897 27.74H20.691C21.0428 27.4196 21.3704 27.0738 21.6712 26.7041H19.6943C19.43 26.3854 19.19 26.0525 18.9745 25.7086H22.3842C22.5925 25.376 22.7795 25.0299 22.947 24.6728H18.4122C18.2574 24.3402 18.123 24.0017 18.0086 23.6571H23.3505C23.6732 22.6921 23.8472 21.6606 23.8472 20.5892C23.8472 19.878 23.77 19.1852 23.6251 18.5177H17.7251C17.7987 18.1743 17.8906 17.8343 18 17.5021H23.3446C23.2252 17.147 23.0863 16.8017 22.9284 16.4659H18.4115C18.5743 16.118 18.759 15.7782 18.965 15.4502H22.3727C22.1456 15.0881 21.8949 14.7422 21.624 14.4146H19.724C20.0181 14.0681 20.341 13.7415 20.6915 13.4381C18.9772 11.8723 16.6976 10.917 14.197 10.917C14.1753 10.9171 14.1547 10.9171 14.1345 10.9171Z" fill="#CB2026"/>
<path d="M17.666 23.0515L17.795 22.1764C17.7247 22.1764 17.6212 22.2062 17.5301 22.2062C17.1726 22.2062 17.1328 22.0159 17.156 21.875L17.4448 20.0887H17.9883L18.1196 19.1201H17.6073L17.7118 18.5186H16.6839C16.6617 18.5411 16.0771 21.9051 16.0771 22.3139C16.0771 22.9204 16.4164 23.1906 16.8958 23.1866C17.2704 23.1832 17.5632 23.0794 17.666 23.0515Z" fill="white"/>
<path d="M17.9922 21.3827C17.9922 22.8381 18.9502 23.1843 19.7669 23.1843C20.5209 23.1843 20.8522 23.0148 20.8522 23.0148L21.0336 22.0214C21.0336 22.0214 20.4603 22.2761 19.9423 22.2761C18.8391 22.2761 19.0325 21.4512 19.0325 21.4512H21.1211C21.1211 21.4512 21.2554 20.7833 21.2554 20.5114C21.2554 19.8333 20.9179 19.0063 19.7901 19.0063C18.7565 19.0066 17.9922 20.1217 17.9922 21.3827ZM19.7944 19.9281C20.3741 19.9281 20.2669 20.5813 20.2669 20.634H19.1262C19.1259 20.5667 19.2337 19.9281 19.7944 19.9281Z" fill="white"/>
<path d="M26.3009 23.0516L26.485 21.9279C26.485 21.9279 25.9806 22.1826 25.6347 22.1826C24.9059 22.1826 24.6138 21.6235 24.6138 21.0253C24.6138 19.809 25.2408 19.1398 25.9395 19.1398C26.4628 19.1398 26.8832 19.4349 26.8832 19.4349L27.0507 18.3447C27.0507 18.3447 26.4276 18.0913 25.8938 18.0913C24.7073 18.0913 23.5527 19.1216 23.5527 21.06C23.5527 22.3433 24.1764 23.1925 25.4027 23.1925C25.7491 23.1926 26.3009 23.0516 26.3009 23.0516Z" fill="white"/>
<path d="M12.0148 19.0225C11.3101 19.0225 10.7699 19.249 10.7699 19.249L10.6211 20.1363C10.6211 20.1363 11.0673 19.9553 11.7408 19.9553C12.1235 19.9553 12.403 19.9981 12.403 20.3101C12.403 20.4991 12.3689 20.569 12.3689 20.569C12.3689 20.569 12.0675 20.5435 11.9276 20.5435C11.0392 20.5435 10.1055 20.9235 10.1055 22.0701C10.1055 22.9727 10.7176 23.1803 11.0973 23.1803C11.8225 23.1803 12.1341 22.7091 12.1514 22.707L12.1176 23.1009H13.0222L13.426 20.2642C13.426 19.0612 12.3784 19.0225 12.0148 19.0225ZM12.2352 21.331C12.2548 21.5044 12.1265 22.3168 11.5078 22.3168C11.1887 22.3168 11.1055 22.0721 11.1055 21.9275C11.1055 21.6459 11.2584 21.3074 12.0117 21.3074C12.1865 21.3074 12.2054 21.3266 12.2352 21.331Z" fill="white"/>
<path d="M14.3873 23.1584C14.6184 23.1584 15.9415 23.2178 15.9415 21.8496C15.9415 20.5703 14.717 20.8227 14.717 20.3087C14.717 20.0538 14.9166 19.9722 15.2813 19.9722C15.4262 19.9722 15.9836 20.0189 15.9836 20.0189L16.1136 19.1091C16.1136 19.1091 15.7528 19.0288 15.1659 19.0288C14.4049 19.0288 13.634 19.3319 13.634 20.3727C13.634 21.5529 14.9205 21.4335 14.9205 21.9302C14.9205 22.2618 14.5607 22.289 14.2835 22.289C13.8047 22.289 13.3733 22.1242 13.3713 22.1318L13.2344 23.0314C13.2583 23.0398 13.5249 23.1584 14.3873 23.1584Z" fill="white"/>
<path d="M34.8129 18.2063L34.5917 19.5844C34.5917 19.5844 34.2047 19.0496 33.5996 19.0496C32.6576 19.0496 31.873 20.1869 31.873 21.4944C31.873 22.3383 32.2912 23.1643 33.1474 23.1643C33.7631 23.1643 34.1037 22.7343 34.1037 22.7343L34.0589 23.1013H35.0584L35.8439 18.2041L34.8129 18.2063ZM34.336 20.8946C34.336 21.4381 34.0668 22.1638 33.51 22.1638C33.1399 22.1638 32.9672 21.8528 32.9672 21.3647C32.9672 20.5668 33.3247 20.0389 33.7756 20.0389C34.146 20.039 34.336 20.2943 34.336 20.8946Z" fill="white"/>
<path d="M6.4501 23.1052L7.07646 19.4079L7.16765 23.1052H7.87589L9.19658 19.4079L8.61134 23.1052H9.66316L10.4739 18.2026H8.84689L7.83388 21.2102L7.78116 18.2026H6.28199L5.45996 23.1052H6.4501Z" fill="white"/>
<path d="M22.2827 23.1127C22.5818 21.4086 22.6372 20.0242 23.3515 20.2766C23.4765 19.6174 23.5969 19.3624 23.7328 19.0829C23.7328 19.0829 23.6692 19.0693 23.5345 19.0693C23.0752 19.0693 22.734 19.6993 22.734 19.6993L22.8248 19.121H21.8678L21.2275 23.1127H22.2827Z" fill="white"/>
<path d="M28.672 19.0225C27.9674 19.0225 27.4275 19.249 27.4275 19.249L27.279 20.1363C27.279 20.1363 27.7243 19.9553 28.3984 19.9553C28.7807 19.9553 29.0609 19.9981 29.0609 20.3101C29.0609 20.4991 29.0265 20.569 29.0265 20.569C29.0265 20.569 28.7251 20.5435 28.5841 20.5435C27.6954 20.5435 26.7627 20.9235 26.7627 22.0701C26.7627 22.9727 27.3751 23.1803 27.7545 23.1803C28.4797 23.1803 28.7917 22.7091 28.8083 22.707L28.7748 23.1009H29.68L30.0836 20.2642C30.084 19.0612 29.0367 19.0225 28.672 19.0225ZM28.8928 21.331C28.9124 21.5044 28.7847 22.3168 28.165 22.3168C27.8463 22.3168 27.7637 22.0721 27.7637 21.9275C27.7637 21.6459 27.9166 21.3074 28.6686 21.3074C28.8444 21.3074 28.8627 21.3266 28.8928 21.331Z" fill="white"/>
<path d="M30.9095 23.1127C31.2089 21.4086 31.2643 20.0242 31.9785 20.2766C32.1035 19.6174 32.2239 19.3624 32.3605 19.0829C32.3605 19.0829 32.2959 19.0693 32.1619 19.0693C31.7014 19.0693 31.3612 19.6993 31.3612 19.6993L31.4527 19.121H30.4951L29.8545 23.1124H30.9096L30.9095 23.1127Z" fill="white"/>
</g>
<defs>
<clipPath id="clip0_14485_864">
<rect width="42" height="42" fill="white"/>
</clipPath>
</defs>
</svg>
