<svg width="24" height="24" viewBox="0 0 24 24" fill="none" xmlns="http://www.w3.org/2000/svg">
<path d="M22.4107 5.68085C22.7054 5.68085 23 5.44149 23 5.10638V3.57447C23 3.28723 22.7054 3 22.4107 3H1.58929C1.24554 3 1 3.28723 1 3.57447V5.10638C1 5.44149 1.24554 5.68085 1.58929 5.68085H22.4107ZM22.4107 13.3404C22.7054 13.3404 23 13.1011 23 12.766V11.234C23 10.9468 22.7054 10.6596 22.4107 10.6596H1.58929C1.24554 10.6596 1 10.9468 1 11.234V12.766C1 13.1011 1.24554 13.3404 1.58929 13.3404H22.4107ZM22.4107 21C22.7054 21 23 20.7606 23 20.4255V18.8936C23 18.6064 22.7054 18.3191 22.4107 18.3191H1.58929C1.24554 18.3191 1 18.6064 1 18.8936V20.4255C1 20.7606 1.24554 21 1.58929 21H22.4107Z" fill="white"/>
</svg>
