<svg width="24" height="24" viewBox="0 0 24 24" fill="none" xmlns="http://www.w3.org/2000/svg">
<path d="M13.8477 11.2344L10.7539 10.332C10.3672 10.2031 10.0664 9.77344 10.0664 9.34375C10.0664 8.78516 10.4961 8.3125 10.9688 8.3125H12.9023C13.2031 8.3125 13.5039 8.39844 13.7617 8.57031C14.0195 8.74219 14.3633 8.69922 14.5781 8.48438L15.0938 8.01172C15.4375 7.71094 15.3945 7.19531 15.0078 6.9375C14.4062 6.50781 13.7188 6.29297 13.0312 6.29297V5.5625C13.0312 5.21875 12.7305 4.875 12.3438 4.875H11.6562C11.2695 4.875 10.9688 5.21875 10.9688 5.5625V6.25C9.33594 6.29297 8.04688 7.66797 8.04688 9.34375C8.04688 10.6758 8.90625 11.9219 10.1523 12.2656L13.2461 13.2109C13.6328 13.3398 13.8906 13.7266 13.8906 14.1992C13.8906 14.7578 13.5039 15.1875 12.9883 15.1875H11.0547C10.7539 15.1875 10.4961 15.1445 10.2383 14.9727C9.9375 14.8008 9.59375 14.8438 9.37891 15.0586L8.86328 15.5312C8.51953 15.832 8.60547 16.3477 8.94922 16.6055C9.55078 16.9922 10.2383 17.25 10.9688 17.25V17.9375C10.9688 18.3242 11.2695 18.625 11.6562 18.625H12.3438C12.6875 18.625 13.0312 18.3242 13.0312 17.9375V17.25C14.6211 17.25 15.9531 15.875 15.9531 14.1992C15.9531 12.8672 15.0938 11.6211 13.8477 11.2344ZM12 1.09375C6.11328 1.09375 1.34375 5.86328 1.34375 11.75C1.34375 17.6367 6.11328 22.4062 12 22.4062C17.8867 22.4062 22.6562 17.6367 22.6562 11.75C22.6562 5.86328 17.8867 1.09375 12 1.09375ZM12 20.3438C7.23047 20.3438 3.40625 16.5195 3.40625 11.75C3.40625 7.02344 7.23047 3.15625 12 3.15625C16.7266 3.15625 20.5938 7.02344 20.5938 11.75C20.5938 16.5195 16.7266 20.3438 12 20.3438Z" fill="black"/>
</svg>
