<svg width="24" height="24" viewBox="0 0 24 24" fill="none" xmlns="http://www.w3.org/2000/svg">
<path d="M19.4643 11.3125H7.92857V7.27344C7.92857 4.99609 9.70982 3.10547 11.9576 3.0625C14.2054 3.0625 16.0714 4.91016 16.0714 7.1875V8.21875C16.0714 8.82031 16.4955 9.25 17.0893 9.25C17.6406 9.25 18.1071 8.82031 18.1071 8.21875V7.27344C18.1071 3.83594 15.3929 1.04297 12 1C8.60714 1 5.89286 3.79297 5.89286 7.1875V11.3125H4.53571C3.39062 11.3125 2.5 12.2578 2.5 13.375V20.9375C2.5 22.0977 3.39062 23 4.53571 23H19.4643C20.567 23 21.5 22.0977 21.5 20.9375V13.375C21.5 12.2578 20.567 11.3125 19.4643 11.3125ZM19.4643 20.9375H4.53571V13.375H19.4643V20.9375ZM12 19.5625C12.6362 19.5625 13.1875 19.0469 13.1875 18.3594V15.9531C13.1875 15.3086 12.6362 14.75 12 14.75C11.3214 14.75 10.8125 15.3086 10.8125 15.9531V18.3594C10.8125 19.0469 11.3214 19.5625 12 19.5625Z" fill="black"/>
</svg>
