<svg width="24" height="24" viewBox="0 0 24 24" fill="none" xmlns="http://www.w3.org/2000/svg">
<path d="M21.4537 1.9554L17.4162 1.05165C16.4713 0.836465 15.5264 1.30986 15.1827 2.17058L13.2929 6.56025C12.9492 7.3349 13.164 8.28169 13.8512 8.84116L15.5693 10.2613C14.3667 12.4992 12.4768 14.3498 10.2433 15.5978L8.82585 13.8764C8.26748 13.1878 7.32253 12.9726 6.5494 13.3169L2.1683 15.1674C1.30926 15.5548 0.836785 16.5016 1.05154 17.4484L1.95354 21.4937C2.1683 22.3975 2.98438 23 3.88637 23C14.4096 23 23 14.4789 23 3.89202C23 2.98826 22.3557 2.17058 21.4537 1.9554ZM3.97228 20.9343L3.07029 17.061L7.27958 15.2535L9.68489 18.18C13.9371 16.1573 16.1277 13.9624 18.1464 9.70188L15.2257 7.29186L17.0297 3.07434L20.9383 3.97809C20.8954 13.3169 13.2929 20.8912 3.97228 20.9343Z" fill="black"/>
</svg>
