<svg width="24" height="24" viewBox="0 0 24 24" fill="none" xmlns="http://www.w3.org/2000/svg">
<path d="M20.9923 11.1342L22.4567 10.335C22.8686 10.113 23.0974 9.62462 22.9601 9.13623C22.4567 7.27144 21.4042 5.58426 20.0313 4.20787C19.6652 3.89707 19.116 3.80827 18.7042 4.03027L17.2398 4.87386C16.8737 4.60747 16.1873 4.20787 15.7296 4.03027V2.38749C15.7296 1.94349 15.3635 1.4551 14.9059 1.3663C13.0297 0.877901 10.9703 0.877901 9.09409 1.3663C8.5907 1.4995 8.27037 1.89909 8.27037 2.38749V4.03027C7.81274 4.20787 7.12631 4.60747 6.76021 4.87386L5.29581 4.03027C4.88395 3.80827 4.3348 3.89707 3.9687 4.20787C2.59583 5.58426 1.5433 7.27144 1.03991 9.13623C0.902625 9.62462 1.13144 10.113 1.5433 10.335L3.00769 11.1342C2.96193 11.4006 2.96193 11.7558 2.96193 11.9778C2.96193 12.2442 2.96193 12.5994 3.00769 12.8214L1.5433 13.665C1.13144 13.887 0.902625 14.3754 1.03991 14.8638C1.5433 16.7286 2.59583 18.4157 3.9687 19.7921C4.3348 20.1029 4.88395 20.1917 5.29581 19.9697L6.76021 19.1261C7.12631 19.3925 7.81274 19.7921 8.27037 19.9697V21.6125C8.27037 22.0565 8.63647 22.5449 9.09409 22.6337C10.9703 23.1221 13.0297 23.1221 14.9059 22.6337C15.4093 22.5005 15.7296 22.1009 15.7296 21.6125V19.9697C16.1873 19.7921 16.8737 19.3925 17.2398 19.1261L18.7042 19.9697C19.116 20.1917 19.6652 20.1029 20.0313 19.7921C21.4042 18.4157 22.4567 16.7286 22.9601 14.8638C23.0974 14.3754 22.8686 13.887 22.4567 13.665L20.9923 12.8214C21.0381 12.2886 21.0381 11.7114 20.9923 11.1342ZM18.5669 13.9758L20.5804 15.0858C20.3059 15.885 19.5737 17.0394 19.0245 17.6609L17.011 16.551C15.5466 17.7497 15.3635 17.8829 13.533 18.5045V20.7689C13.1212 20.8133 12.4347 20.9021 12.0229 20.9021C11.5653 20.9021 10.8788 20.8133 10.467 20.7689V18.5045C8.63647 17.8829 8.40765 17.7497 6.98902 16.551L4.97548 17.6609C4.42633 17.0394 3.69413 15.885 3.41956 15.0858L5.4331 13.9758C5.067 12.111 5.067 11.889 5.4331 10.0242L3.41956 8.91423C3.78565 7.98184 4.28904 7.09384 4.97548 6.33905L6.98902 7.44904C8.45342 6.25025 8.63647 6.11705 10.467 5.49546V3.23108C10.8788 3.18668 11.5653 3.09788 12.0229 3.09788C12.4347 3.09788 13.1212 3.18668 13.533 3.23108V5.49546C15.3635 6.11705 15.5923 6.25025 17.011 7.44904L19.0245 6.33905C19.5737 6.96065 20.3059 8.11504 20.5804 8.91423L18.5669 10.0242C18.933 11.889 18.933 12.111 18.5669 13.9758ZM12.0229 7.71544C9.59748 7.71544 7.62969 9.66902 7.62969 11.9778C7.62969 14.331 9.59748 16.2402 12.0229 16.2402C14.4025 16.2402 16.4161 14.331 16.4161 11.9778C16.4161 9.66902 14.4025 7.71544 12.0229 7.71544ZM12.0229 14.109C10.7873 14.109 9.82629 13.1766 9.82629 11.9778C9.82629 10.8234 10.7873 9.84662 12.0229 9.84662C13.2127 9.84662 14.2195 10.8234 14.2195 11.9778C14.2195 13.1766 13.2127 14.109 12.0229 14.109Z" fill="black"/>
</svg>
