<svg width="24" height="24" viewBox="0 0 24 24" fill="none" xmlns="http://www.w3.org/2000/svg">
<g clip-path="url(#clip0_1900_4854)">
<path d="M20.2791 6.50941L19.8234 6.96522C19.451 7.33763 18.9558 7.54272 18.4291 7.54272C17.9024 7.54272 17.4073 7.33763 17.0348 6.96522C16.6624 6.59281 16.4573 6.09764 16.4573 5.57097C16.4573 5.0443 16.6624 4.54913 17.0348 4.17668L17.4906 3.72087L14.7697 1L1 14.7697L3.72087 17.4906L4.17668 17.0348C4.54909 16.6624 5.04426 16.4573 5.57097 16.4573C6.09768 16.4573 6.59277 16.6624 6.96522 17.0348C7.33763 17.4072 7.54272 17.9024 7.54272 18.429C7.54272 18.9557 7.33763 19.4509 6.96522 19.8233L6.50941 20.2791L9.23028 23L23 9.23028L20.2791 6.50941ZM8.28793 20.2344C8.64186 19.704 8.832 19.0811 8.832 18.429C8.832 17.558 8.4928 16.7391 7.87685 16.1232C7.26093 15.5072 6.44199 15.168 5.57097 15.168C4.91888 15.168 4.296 15.3581 3.76564 15.7121L2.82325 14.7697L14.7697 2.82325L15.7121 3.76564C15.3581 4.296 15.168 4.91888 15.168 5.57097C15.168 6.44204 15.5072 7.26093 16.1232 7.87685C16.7391 8.4928 17.558 8.832 18.429 8.832C19.0811 8.832 19.704 8.64186 20.2344 8.28793L21.1768 9.23028L9.23028 21.1768L8.28793 20.2344Z" fill="white"/>
<path d="M13.8462 9.23877L12.9346 10.1504L13.8498 11.0657L14.7614 10.154L13.8462 9.23877Z" fill="white"/>
<path d="M12.0151 7.40772L11.1035 8.31934L12.0188 9.2346L12.9304 8.32298L12.0151 7.40772Z" fill="white"/>
<path d="M15.6763 11.0693L14.7646 11.981L15.6799 12.8962L16.5915 11.9846L15.6763 11.0693Z" fill="white"/>
</g>
<defs>
<clipPath id="clip0_1900_4854">
<rect width="22" height="22" fill="white" transform="translate(1 1)"/>
</clipPath>
</defs>
</svg>
