<svg width="24" height="24" viewBox="0 0 24 24" fill="none" xmlns="http://www.w3.org/2000/svg">
<path d="M22.8518 6.61043C22.5906 6.22845 22.0732 6.13343 21.6964 6.39861L19.1184 8.21351C18.8843 8.37828 18.7499 8.65334 18.7622 8.9421C18.7696 9.11529 18.7732 9.2777 18.7732 9.43853C18.7732 14.7851 14.7635 20.3152 8.05327 20.3152C6.68536 20.3152 5.34147 20.051 4.08548 19.5414L8.06389 18.4124C8.50547 18.2871 8.76329 17.8223 8.63975 17.3743C8.51621 16.9264 8.05858 16.6647 7.61656 16.79L1.6066 18.4956C1.29155 18.585 1.05764 18.8538 1.00916 19.1821C0.960783 19.5103 1.10679 19.8369 1.38221 20.0161C3.37745 21.3139 5.68431 22 8.05327 22C12.7089 22 15.6249 19.7683 17.2514 17.8962C19.2738 15.5681 20.4337 12.4855 20.4337 9.43865C20.4337 9.40529 20.4336 9.37193 20.4334 9.33846L22.6431 7.78289C23.0197 7.5176 23.1132 6.99275 22.8518 6.61043Z" fill="black"/>
<path d="M2.83278 6.34773L11.2 10.6511C11.3186 10.7122 11.4473 10.7422 11.5752 10.7422C11.7574 10.7422 11.9385 10.6814 12.0877 10.5627C12.3415 10.3608 12.4571 10.028 12.384 9.7091C12.3285 9.46718 12.3005 9.21536 12.3005 8.96086C12.3005 7.15449 13.7492 5.68484 15.53 5.68484C16.4201 5.68484 17.2794 6.06189 17.8874 6.71938C18.1146 6.96513 18.4643 7.0497 18.7764 6.93469L21.3588 5.9827C21.7898 5.82378 22.0123 5.3406 21.8556 4.90335C21.6991 4.466 21.2224 4.24058 20.7918 4.39928L18.6904 5.17392C17.8127 4.42231 16.6886 4 15.53 4C12.9916 4 10.8989 5.97237 10.6623 8.48565L3.58354 4.84506C3.1745 4.63458 2.67492 4.80058 2.46758 5.21548C2.26024 5.63048 2.42374 6.13736 2.83278 6.34773Z" fill="black"/>
<path d="M2.4047 11.3922L4.24319 11.9071C4.31714 11.9279 4.39142 11.9377 4.46459 11.9377C4.82868 11.9377 5.16277 11.6927 5.26439 11.3193C5.38649 10.8709 5.12701 10.4069 4.6851 10.283L2.84661 9.76808C2.40492 9.64431 1.9474 9.90735 1.8253 10.3558C1.70331 10.8044 1.96268 11.2683 2.4047 11.3922Z" fill="black"/>
<path d="M4.01652 13.8994C3.55834 13.917 3.201 14.3081 3.21838 14.773C3.23532 15.227 3.60339 15.5834 4.04752 15.5834C4.05814 15.5834 4.06877 15.5832 4.0794 15.5829L5.9128 15.5123C6.37098 15.4947 6.72831 15.1036 6.71105 14.6386C6.69367 14.1738 6.30722 13.8116 5.85003 13.8288L4.01652 13.8994Z" fill="black"/>
</svg>
